<mxfile host="app.diagrams.net" agent="Mozilla/5.0 (Windows NT 10.0; Win64; x64) AppleWebKit/537.36 (KHTML, like Gecko) Chrome/128.0.0.0 Safari/537.36 OPR/114.0.0.0" version="24.8.6">
  <diagram id="C5RBs43oDa-KdzZeNtuy" name="Page-1">
    <mxGraphModel dx="1393" dy="796" grid="1" gridSize="10" guides="1" tooltips="1" connect="1" arrows="1" fold="1" page="1" pageScale="1" pageWidth="827" pageHeight="1169" math="0" shadow="0">
      <root>
        <mxCell id="WIyWlLk6GJQsqaUBKTNV-0" />
        <mxCell id="WIyWlLk6GJQsqaUBKTNV-1" parent="WIyWlLk6GJQsqaUBKTNV-0" />
        <mxCell id="fb_G9yq6q-zGA6ELe5B0-9" style="edgeStyle=orthogonalEdgeStyle;rounded=0;orthogonalLoop=1;jettySize=auto;html=1;exitX=0.5;exitY=0.5;exitDx=0;exitDy=0;exitPerimeter=0;jumpStyle=none;" edge="1" parent="WIyWlLk6GJQsqaUBKTNV-1" source="fb_G9yq6q-zGA6ELe5B0-0" target="fb_G9yq6q-zGA6ELe5B0-3">
          <mxGeometry relative="1" as="geometry" />
        </mxCell>
        <mxCell id="fb_G9yq6q-zGA6ELe5B0-0" value="Estoquista" style="shape=umlActor;verticalLabelPosition=bottom;verticalAlign=top;html=1;outlineConnect=0;" vertex="1" parent="WIyWlLk6GJQsqaUBKTNV-1">
          <mxGeometry x="280" y="50" width="30" height="60" as="geometry" />
        </mxCell>
        <mxCell id="fb_G9yq6q-zGA6ELe5B0-8" style="edgeStyle=orthogonalEdgeStyle;rounded=0;orthogonalLoop=1;jettySize=auto;html=1;exitX=0.5;exitY=0.5;exitDx=0;exitDy=0;exitPerimeter=0;entryX=0.5;entryY=0.5;entryDx=0;entryDy=0;entryPerimeter=0;" edge="1" parent="WIyWlLk6GJQsqaUBKTNV-1" source="fb_G9yq6q-zGA6ELe5B0-1" target="fb_G9yq6q-zGA6ELe5B0-1">
          <mxGeometry relative="1" as="geometry">
            <mxPoint x="500" y="70" as="targetPoint" />
          </mxGeometry>
        </mxCell>
        <mxCell id="fb_G9yq6q-zGA6ELe5B0-1" value="Usuário" style="shape=umlActor;verticalLabelPosition=bottom;verticalAlign=top;html=1;outlineConnect=0;" vertex="1" parent="WIyWlLk6GJQsqaUBKTNV-1">
          <mxGeometry x="414" y="50" width="30" height="60" as="geometry" />
        </mxCell>
        <mxCell id="fb_G9yq6q-zGA6ELe5B0-2" value="Gerente de Setor&lt;div&gt;&lt;br&gt;&lt;/div&gt;" style="shape=umlActor;verticalLabelPosition=bottom;verticalAlign=top;html=1;outlineConnect=0;" vertex="1" parent="WIyWlLk6GJQsqaUBKTNV-1">
          <mxGeometry x="570" y="50" width="30" height="60" as="geometry" />
        </mxCell>
        <mxCell id="fb_G9yq6q-zGA6ELe5B0-10" style="edgeStyle=orthogonalEdgeStyle;rounded=0;orthogonalLoop=1;jettySize=auto;html=1;exitX=0.5;exitY=1;exitDx=0;exitDy=0;entryX=0.5;entryY=0;entryDx=0;entryDy=0;" edge="1" parent="WIyWlLk6GJQsqaUBKTNV-1" source="fb_G9yq6q-zGA6ELe5B0-3" target="fb_G9yq6q-zGA6ELe5B0-4">
          <mxGeometry relative="1" as="geometry" />
        </mxCell>
        <mxCell id="fb_G9yq6q-zGA6ELe5B0-3" value="Registrar Entrada de Produto" style="ellipse;whiteSpace=wrap;html=1;" vertex="1" parent="WIyWlLk6GJQsqaUBKTNV-1">
          <mxGeometry x="235" y="160" width="120" height="80" as="geometry" />
        </mxCell>
        <mxCell id="fb_G9yq6q-zGA6ELe5B0-4" value="Validar Nota Fiscal" style="ellipse;whiteSpace=wrap;html=1;" vertex="1" parent="WIyWlLk6GJQsqaUBKTNV-1">
          <mxGeometry x="235" y="270" width="120" height="80" as="geometry" />
        </mxCell>
        <mxCell id="fb_G9yq6q-zGA6ELe5B0-5" value="Emitir Relatório de Posição Semanal" style="ellipse;whiteSpace=wrap;html=1;" vertex="1" parent="WIyWlLk6GJQsqaUBKTNV-1">
          <mxGeometry x="369" y="160" width="120" height="80" as="geometry" />
        </mxCell>
        <mxCell id="fb_G9yq6q-zGA6ELe5B0-6" value="Solicitar Compra de Produtos" style="ellipse;whiteSpace=wrap;html=1;" vertex="1" parent="WIyWlLk6GJQsqaUBKTNV-1">
          <mxGeometry x="369" y="260" width="120" height="80" as="geometry" />
        </mxCell>
        <mxCell id="fb_G9yq6q-zGA6ELe5B0-7" value="Autorizar Compra de Produtos" style="ellipse;whiteSpace=wrap;html=1;" vertex="1" parent="WIyWlLk6GJQsqaUBKTNV-1">
          <mxGeometry x="525" y="160" width="120" height="80" as="geometry" />
        </mxCell>
      </root>
    </mxGraphModel>
  </diagram>
</mxfile>
